# xmcd CD database file generated by OrangeCD 5.2
#
# Track frame offsets:
#	150
#	21799
#	44539
#	64998
#	81032
#	103061
#	121181
#	144683
#	170450
#	188874
#	203740
#	219384
#	235784
#	254551
#	276198
#	293995
#	309171
#	329123
#
# Disc length: 4568 seconds
#
# Revision: 0
# Processed by: cddbd v1.5.2PL0 Copyright (c) Steve Scherf et al.
# Submitted via: OrangeCD 5.2
#
DISCID=1311d612
DTITLE=Various Artist - Try To Remember   Volume 6
DYEAR=2006
DGENRE=Dance Try To Remember
TTITLE0=Gladys Knight and The Pips - The Way We Were   Try To Remember
TTITLE1=Paul Jackson Jr. - Soulful Strut
TTITLE2=Sade - Hang On To Your Love
TTITLE3=The Pointer Sisters - Fire
TTITLE4=Patti LaBelle - On My Own (With Michael McDonald)
TTITLE5=Simply Red - Something Got Me Started
TTITLE6=The Eagles - I Can't Tell You Why
TTITLE7=George Benson - Breezin'
TTITLE8=Kenny G - You Send Me
TTITLE9=Sam Cooke - Shake Rattle And Roll
TTITLE10=Simply Red - If You Don't Know Me By Now
TTITLE11=Lou Rawls - You'll Never Find Another Love Like Mine
TTITLE12=Simply Red - Stars
TTITLE13=B.B. King - Darlin' You Know I Love You
TTITLE14=The Pointer Sisters - Slow Hand
TTITLE15=Al Green - Let's Stay Together
TTITLE16=The Commodores - Easy
TTITLE17=Young Holt Unlimited - Soulful Strut
EXTD=
EXTT0=
EXTT1=
EXTT2=
EXTT3=
EXTT4=
EXTT5=
EXTT6=
EXTT7=
EXTT8=
EXTT9=
EXTT10=
EXTT11=
EXTT12=
EXTT13=
EXTT14=
EXTT15=
EXTT16=
EXTT17=
PLAYORDER=
